<svg width="109" height="29" viewBox="0 0 109 29" fill="none" xmlns="http://www.w3.org/2000/svg">
<g clip-path="url(#clip0)">
<path d="M2.36504 24.5469C1.96283 24.5469 1.65139 24.7043 1.43075 25.019C1.2101 25.3314 1.09978 25.7678 1.09978 26.3282C1.09978 27.4942 1.52153 28.0773 2.36504 28.0773C2.719 28.0773 3.14764 27.9854 3.65099 27.8018V28.7318C3.23728 28.9107 2.77531 29.0001 2.26506 29.0001C1.53188 29.0001 0.971071 28.77 0.582641 28.3098C0.194214 27.8472 0 27.1842 0 26.321C0 25.7773 0.0953832 25.3016 0.28615 24.8938C0.476916 24.4837 0.750424 24.1701 1.10668 23.9531C1.46522 23.7337 1.88468 23.624 2.36504 23.624C2.8546 23.624 3.34647 23.7468 3.8406 23.9924L3.49585 24.8938C3.30738 24.8008 3.11777 24.7197 2.927 24.6506C2.73623 24.5814 2.54891 24.5469 2.36504 24.5469Z" fill="#1D2B5B"/>
<path d="M9.70696 28.9286H8.6382V24.622H7.26953V23.6992H11.0757V24.622H9.70696V28.9286Z" fill="#1D2B5B"/>
<path d="M15.9565 26.1601H16.3081C16.6368 26.1601 16.8827 26.0934 17.0459 25.9598C17.2091 25.8239 17.2907 25.6272 17.2907 25.3696C17.2907 25.1097 17.2217 24.9177 17.0838 24.7937C16.9482 24.6697 16.7344 24.6078 16.4426 24.6078H15.9565V26.1601ZM18.3698 25.3303C18.3698 25.8931 18.1997 26.3235 17.8595 26.6215C17.5217 26.9196 17.0401 27.0687 16.415 27.0687H15.9565V28.9286H14.8877V23.6992H16.4977C17.1091 23.6992 17.5734 23.8363 17.8906 24.1105C18.21 24.3824 18.3698 24.789 18.3698 25.3303Z" fill="#1D2B5B"/>
<path d="M26.9319 26.307C26.9319 27.1726 26.725 27.8379 26.3113 28.3029C25.8976 28.7679 25.3046 29.0004 24.5324 29.0004C23.7601 29.0004 23.1671 28.7679 22.7534 28.3029C22.3397 27.8379 22.1328 27.1702 22.1328 26.2998C22.1328 25.4295 22.3397 24.7654 22.7534 24.3075C23.1694 23.8473 23.7647 23.6172 24.5393 23.6172C25.3138 23.6172 25.9056 23.8485 26.3148 24.3111C26.7261 24.7737 26.9319 25.439 26.9319 26.307ZM23.2533 26.307C23.2533 26.8912 23.3602 27.3312 23.5739 27.6269C23.7877 27.9226 24.1071 28.0704 24.5324 28.0704C25.3851 28.0704 25.8114 27.4826 25.8114 26.307C25.8114 25.129 25.3874 24.54 24.5393 24.54C24.114 24.54 23.7934 24.689 23.5774 24.9871C23.3613 25.2828 23.2533 25.7228 23.2533 26.307Z" fill="#1D2B5B"/>
<path d="M31.0127 23.699H31.9747V26.2243L31.9608 26.9004L31.9264 27.6694H31.9472L34.2741 23.699H35.5533V28.9284H34.6018V26.4175C34.6018 26.0812 34.6226 25.5829 34.6637 24.9223H34.6362L32.2988 28.9284H31.0127V23.699ZM34.9534 22C34.9098 22.4459 34.7478 22.7714 34.4673 22.9765C34.1869 23.1792 33.7824 23.2805 33.2536 23.2805C32.7091 23.2805 32.3056 23.1828 32.0436 22.9872C31.7839 22.7917 31.6379 22.4626 31.6058 22H32.5471C32.5631 22.2456 32.6216 22.4185 32.7227 22.5186C32.8263 22.6164 33.01 22.6653 33.2743 22.6653C33.5066 22.6653 33.6788 22.6116 33.7917 22.5043C33.9064 22.3946 33.9766 22.2265 34.0019 22H34.9534Z" fill="#1D2B5B"/>
<path d="M41.9956 28.9286L40.7819 24.8259H40.751C40.7946 25.6605 40.8165 26.2174 40.8165 26.4964V28.9286H39.8613V23.6992H41.3162L42.5092 27.6982H42.5299L43.7952 23.6992H45.2501V28.9286H44.2538V26.4534C44.2538 26.3366 44.2547 26.2018 44.2572 26.0492C44.2618 25.8966 44.2779 25.4912 44.3054 24.8331H44.2745L42.9746 28.9286H41.9956Z" fill="#1D2B5B"/>
<path d="M52.6437 28.9286L52.2782 27.6839H50.4409L50.0754 28.9286H48.9238L50.7028 23.6777H52.0095L53.7953 28.9286H52.6437ZM52.0231 26.7539C51.6855 25.6259 51.4947 24.9881 51.4508 24.8402C51.4096 24.6924 51.3796 24.5755 51.3614 24.4897C51.2853 24.7949 51.0683 25.5497 50.7096 26.7539H52.0231Z" fill="#1D2B5B"/>
<path d="M59.1729 28.9286H58.1043V24.622H56.7354V23.6992H60.5415V24.622H59.1729V28.9286Z" fill="#1D2B5B"/>
<path d="M67.2555 28.9286H64.3525V23.6992H67.2555V24.6078H65.4215V25.7559H67.1278V26.6645H65.4215V28.013H67.2555V28.9286Z" fill="#1D2B5B"/>
<path d="M72.4153 26.1601H72.7672C73.0959 26.1601 73.3418 26.0934 73.505 25.9598C73.668 25.8239 73.7496 25.6272 73.7496 25.3696C73.7496 25.1097 73.6807 24.9177 73.5428 24.7937C73.4073 24.6697 73.1937 24.6078 72.9017 24.6078H72.4153V26.1601ZM74.8288 25.3303C74.8288 25.8931 74.6587 26.3235 74.3186 26.6215C73.9806 26.9196 73.4992 27.0687 72.8739 27.0687H72.4153V28.9286H71.3467V23.6992H72.9568C73.5681 23.6992 74.0326 23.8363 74.3495 24.1105C74.6689 24.3824 74.8288 24.789 74.8288 25.3303Z" fill="#1D2B5B"/>
<path d="M78.8164 23.6992H79.7781V26.2245L79.7645 26.9005L79.7298 27.6696H79.7506L82.0778 23.6992H83.3567V28.9286H82.4052V26.4176C82.4052 26.0814 82.4259 25.583 82.4674 24.9225H82.4398L80.1021 28.9286H78.8164V23.6992Z" fill="#1D2B5B"/>
<path d="M90.7515 28.9286L90.386 27.6839H88.5483L88.1828 28.9286H87.0312L88.8105 23.6777H90.117L91.9027 28.9286H90.7515ZM90.1309 26.7539C89.7929 25.6259 89.6021 24.9881 89.5585 24.8402C89.5171 24.6924 89.4874 24.5755 89.4688 24.4897C89.3931 24.7949 89.1757 25.5497 88.8173 26.7539H90.1309Z" fill="#1D2B5B"/>
<path d="M99.5649 28.9286H98.4996V24.622H97.2655L97.2102 25.1013C97.0679 26.3199 96.9414 27.1748 96.8311 27.666C96.7231 28.1548 96.5654 28.4994 96.3589 28.6997C96.1542 28.9 95.8703 29.0002 95.5073 29.0002C95.314 29.0002 95.1439 28.974 94.9971 28.9215V28.013C95.1303 28.0606 95.2556 28.0845 95.3728 28.0845C95.4946 28.0845 95.5911 28.0273 95.6622 27.9128C95.7336 27.7959 95.8001 27.5813 95.8623 27.269C95.9266 26.9542 96.0104 26.4403 96.114 25.7273C96.2197 25.0119 96.3094 24.3359 96.383 23.6992H99.5649V28.9286Z" fill="#1D2B5B"/>
<path d="M107.321 27.294C107.321 27.8377 107.146 28.2466 106.797 28.5209C106.449 28.7927 105.935 28.9286 105.252 28.9286H103.873V23.6992H104.942V25.7059H105.286C105.932 25.7059 106.432 25.8453 106.786 26.1244C107.142 26.401 107.321 26.7909 107.321 27.294ZM104.942 28.0201H105.221C105.573 28.0201 105.83 27.9605 105.993 27.8413C106.157 27.7197 106.238 27.5372 106.238 27.294C106.238 27.0508 106.159 26.8767 106 26.7718C105.844 26.6669 105.568 26.6144 105.173 26.6144H104.942V28.0201ZM109 28.9286H107.934V23.6992H109V28.9286Z" fill="#1D2B5B"/>
<path d="M15.2843 7.39805V13.8737H10.8353V7.39805L13.0598 5.78507L15.2843 7.39805ZM17.4069 0L13.0598 3.15183L8.71301 0L0 6.31787V16H5.05479V13.8737H2.14175V7.39805L8.71301 2.63257L11.2445 4.46846L8.69393 6.31787V16H17.4259V6.31787L14.8756 4.46846L17.4069 2.63257L23.9786 7.39805V13.8737H20.823V16H26.1198V6.31787L17.4069 0Z" fill="#1D2B5B"/>
<path d="M35.0346 15.9812H32.1475V1H43.3038V3.27241H35.0346V15.9812Z" fill="#1D2B5B"/>
<path d="M52.3062 12.5937C52.0133 13.772 51.3745 14.6908 50.389 15.3501C49.4187 16.0094 48.2563 16.339 46.9013 16.339C45.0995 16.339 43.6675 15.813 42.605 14.7609C41.558 13.6949 41.0342 12.3342 41.0342 10.679C41.0342 8.9817 41.5731 7.57899 42.6511 6.47083C43.7445 5.36267 45.1304 4.80859 46.8089 4.80859C48.5488 4.80859 49.927 5.35565 50.9431 6.44977C51.9595 7.52988 52.4679 9.00978 52.4679 10.8894V11.1419H43.6675C43.6981 12.236 43.9987 13.0847 44.5683 13.6879C45.1381 14.277 45.931 14.5716 46.9474 14.5716C47.671 14.5716 48.2563 14.4173 48.7028 14.1087C49.1648 13.7861 49.5266 13.2811 49.7885 12.5937H52.3062ZM49.8346 9.5428C49.7576 8.63102 49.4419 7.91563 48.8874 7.39661C48.3488 6.86359 47.6481 6.59708 46.7857 6.59708C45.9233 6.59708 45.2226 6.84955 44.6839 7.35453C44.1601 7.85953 43.8369 8.58894 43.7136 9.5428H49.8346Z" fill="#1D2B5B"/>
<path d="M56.9872 5.12421V6.57602C57.7881 5.39774 59.0815 4.80859 60.8676 4.80859C62.5154 4.80859 63.8317 5.3346 64.8172 6.38666C65.8027 7.4387 66.2956 8.84144 66.2956 10.5949C66.2956 12.3062 65.8104 13.6809 64.8404 14.7189C63.8859 15.7429 62.6076 16.2549 61.0061 16.2549C59.3125 16.2549 58.0191 15.6868 57.1257 14.5506V20.0002H54.5156V5.12421H56.9872ZM60.3363 6.74436C59.3048 6.74436 58.4962 7.081 57.9111 7.75431C57.3261 8.42762 57.0333 9.36046 57.0333 10.5528C57.0333 11.7311 57.3261 12.6569 57.9111 13.3302C58.5116 14.0035 59.3354 14.3401 60.3827 14.3401C61.3834 14.3401 62.1765 14.0035 62.7615 13.3302C63.3469 12.6569 63.6394 11.7451 63.6394 10.5949C63.6394 9.41655 63.3392 8.48374 62.7387 7.79639C62.1533 7.09504 61.3527 6.74436 60.3363 6.74436Z" fill="#1D2B5B"/>
<path d="M71.1304 15.9812H68.5898V5.12402H72.0543L75.3803 13.7508H75.4267L78.6373 5.12402H82.1018V15.9812H79.5613V8.76411H79.5149L76.6738 15.9812H74.0176L71.1768 8.76411H71.1304V15.9812Z" fill="#1D2B5B"/>
<path d="M95.5246 12.5937C95.2321 13.772 94.5929 14.6908 93.6074 15.3501C92.6374 16.0094 91.4748 16.339 90.1198 16.339C88.3179 16.339 86.8859 15.813 85.8235 14.7609C84.7764 13.6949 84.2529 12.3342 84.2529 10.679C84.2529 8.9817 84.7919 7.57899 85.8698 6.47083C86.9629 5.36267 88.3489 4.80859 90.0273 4.80859C91.7673 4.80859 93.1455 5.35565 94.1619 6.44977C95.178 7.52988 95.6863 9.00978 95.6863 10.8894V11.1419H86.8859C86.9169 12.236 87.2171 13.0847 87.7867 13.6879C88.3566 14.277 89.1497 14.5716 90.1658 14.5716C90.8897 14.5716 91.4748 14.4173 91.9213 14.1087C92.3832 13.7861 92.745 13.2811 93.0069 12.5937H95.5246ZM93.053 9.5428C92.976 8.63102 92.6603 7.91563 92.1062 7.39661C91.5672 6.86359 90.8665 6.59708 90.0041 6.59708C89.142 6.59708 88.4413 6.84955 87.9023 7.35453C87.3788 7.85953 87.0554 8.58894 86.9323 9.5428H93.053Z" fill="#1D2B5B"/>
<path d="M108.498 11.8779C108.313 13.2105 107.728 14.2766 106.742 15.0761C105.757 15.8617 104.517 16.2545 103.023 16.2545C101.237 16.2545 99.8124 15.7425 98.75 14.7185C97.6875 13.6804 97.1562 12.3268 97.1562 10.6575C97.1562 8.86204 97.6875 7.43827 98.75 6.38623C99.8279 5.32016 101.275 4.78711 103.092 4.78711C104.617 4.78711 105.841 5.13779 106.765 5.83918C107.704 6.54053 108.251 7.51542 108.405 8.76387H105.795C105.641 8.07652 105.333 7.55048 104.871 7.1858C104.409 6.82108 103.824 6.63871 103.116 6.63871C102.099 6.63871 101.299 6.98942 100.714 7.69077C100.128 8.37812 99.8356 9.32496 99.8356 10.5313C99.8356 11.7377 100.113 12.6775 100.667 13.3508C101.237 14.0241 102.022 14.3608 103.023 14.3608C103.808 14.3608 104.448 14.1504 104.94 13.7295C105.449 13.2947 105.772 12.6775 105.91 11.8779H108.498Z" fill="#1D2B5B"/>
</g>
<defs>
<clipPath id="clip0">
<rect width="109" height="29" fill="white"/>
</clipPath>
</defs>
</svg>
