<svg width="26" height="26" viewBox="0 0 26 26" fill="none" xmlns="http://www.w3.org/2000/svg">
<path d="M15.5037 23.958C15.3087 23.9059 15.1197 23.8329 14.94 23.7401C11.5069 22.0216 8.62243 19.3558 6.61865 16.0495C4.67338 12.7525 3.71274 8.95506 3.85298 5.11651C3.87578 4.63952 4.01936 4.1765 4.26988 3.772C4.52041 3.3675 4.86946 3.03513 5.28346 2.80687L8.18668 1.15601C8.33444 1.07371 8.49768 1.02391 8.66573 1.00985C8.83378 0.995793 9.00287 1.0178 9.16195 1.07443C9.32598 1.13677 9.47454 1.23475 9.59718 1.3615C9.71982 1.48825 9.81357 1.64068 9.87183 1.80808L11.6559 6.91901C11.7214 7.11632 11.7226 7.32972 11.6594 7.52778C11.5962 7.72585 11.4719 7.89813 11.3048 8.01927L9.39475 9.39862C9.64033 10.8526 10.1595 12.2451 10.924 13.5005C11.6727 14.7899 12.6585 15.9218 13.8279 16.8351L16.0061 15.8592C16.1889 15.7779 16.3917 15.7548 16.5878 15.7931C16.7838 15.8314 16.9637 15.9292 17.1035 16.0736L20.7468 20.0994C20.8738 20.2301 20.9699 20.3881 21.028 20.5618C21.0862 20.7354 21.1047 20.9201 21.0824 21.1021C21.06 21.284 20.9974 21.4585 20.899 21.6124C20.8007 21.7663 20.6692 21.8956 20.5146 21.9908L17.6679 23.6628C17.3441 23.8542 16.9863 23.9787 16.6148 24.0294C16.2434 24.08 15.8658 24.0558 15.5037 23.958ZM8.76975 2.21407L5.86653 3.86493C5.63392 3.99223 5.43802 4.17868 5.29809 4.40595C5.15816 4.63322 5.07902 4.89347 5.06846 5.16113C4.93011 8.7613 5.82378 12.325 7.64145 15.4216C9.52731 18.5324 12.2419 21.0402 15.4728 22.6564C15.7171 22.7794 15.9878 22.839 16.2605 22.8299C16.5332 22.8208 16.7995 22.7433 17.0353 22.6043L19.882 20.9322L16.3639 17.0462L14.0236 18.0985C13.9341 18.1384 13.8363 18.1555 13.7388 18.1484C13.6413 18.1413 13.5469 18.1101 13.464 18.0575C12.0092 17.0319 10.7961 15.6932 9.91131 14.1373C8.96961 12.6312 8.37571 10.9291 8.17391 9.15795C8.17292 9.05369 8.19842 8.95093 8.24797 8.85954C8.29751 8.76816 8.36943 8.69123 8.45681 8.63616L10.5119 7.15069L8.76975 2.21407Z" fill="#5661CB"/>
</svg>
